{
  "source": "C:\\Users\\Peter\\Desktop\\stuff\\MIUN\\quantitative_research\\video_compression\\videos\\BVI-HD\\BVI-HD_CDVL_videos\\ORIG\\PaintingTilting_1920x1080_60fps.mp4",
  "output": "C:\\Users\\Peter\\Desktop\\stuff\\MIUN\\quantitative_research\\video_compression\\compressed_videos\\BVI-HD\\av1\\1\\PaintingTilting_1920x1080_60fps_av1.mkv",
  "codec": "av1",
  "ok": "Input #0, mov,mp4,m4a,3gp,3g2,mj2, from 'C:\\Users\\Peter\\Desktop\\stuff\\MIUN\\quantitative_research\\video_compression\\videos\\BVI-HD\\BVI-HD_CDVL_videos\\ORIG\\PaintingTilting_1920x1080_60fps.mp4':\n  Metadata:\n    major_brand     : isom\n    minor_version   : 512\n    compatible_brands: isomiso2avc1mp41\n    encoder         : Lavf54.28.101\n  Duration: 00:00:05.00, start: 0.000000, bitrate: 667707 kb/s\n  Stream #0:0[0x1](und): Video: h264 (High 4:4:4 Predictive) (avc1 / 0x31637661), yuv420p(progressive), 1920x1080, 667702 kb/s, 60 fps, 60 tbr, 60 tbn (default)\n    Metadata:\n      handler_name    : VideoHandler\n      vendor_id       : [0][0][0][0]\n[out#0/matroska @ 0000024ebaba9000] Codec AVOption b:a (set bitrate (in bits/s)) has not been used for any stream. The most likely reason is either wrong type (e.g. a video option with no video streams) or that it is a private option of some decoder which was not actually used for any stream.\nStream mapping:\n  Stream #0:0 -> #0:0 (h264 (native) -> av1 (libsvtav1))\nPress [q] to stop, [?] for help\nSvt[info]: -------------------------------------------\nSvt[info]: SVT [version]:\tSVT-AV1 Encoder Lib v3.1.0-19-g6ecfe8ec\nSvt[info]: SVT [build]  :\tGCC 15.2.0\t 64 bit\nSvt[info]: LIB Build date: Aug 17 2025 11:37:13\nSvt[info]: -------------------------------------------\nSvt[info]: Level of Parallelism: 5\nSvt[info]: Number of PPCS 93\nSvt[info]: [asm level on system : up to avx2]\nSvt[info]: [asm level selected : up to avx2]\nSvt[info]: -------------------------------------------\nSvt[info]: SVT [config]: main profile\ttier (auto)\tlevel (auto)\nSvt[info]: SVT [config]: width / height / fps numerator / fps denominator \t\t: 1920 / 1080 / 60 / 1\nSvt[info]: SVT [config]: bit-depth / color format \t\t\t\t\t: 8 / YUV420\nSvt[info]: SVT [config]: preset / tune / pred struct \t\t\t\t\t: 4 / PSNR / random access\nSvt[info]: SVT [config]: gop size / mini-gop size / key-frame type \t\t\t: 321 / 16 / key frame\nSvt[info]: SVT [config]: BRC mode / target bitrate (kbps)\t\t\t\t: VBR / 1000 \nSvt[info]: SVT [config]: AQ mode / Variance Boost \t\t\t\t\t: 2 / 0\nSvt[info]: SVT [config]: sharpness / luminance-based QP bias \t\t\t\t: 0 / 0\nSvt[info]: SVT [config]: QP scale compress strength \t\t\t\t\t: 0\nSvt[info]: -------------------------------------------\nOutput #0, matroska, to 'C:\\Users\\Peter\\Desktop\\stuff\\MIUN\\quantitative_research\\video_compression\\compressed_videos\\BVI-HD\\av1\\1\\PaintingTilting_1920x1080_60fps_av1.mkv':\n  Metadata:\n    major_brand     : isom\n    minor_version   : 512\n    compatible_brands: isomiso2avc1mp41\n    encoder         : Lavf62.3.100\n  Stream #0:0(und): Video: av1 (AV01 / 0x31305641), yuv420p(tv, progressive), 1920x1080, q=2-31, 1000 kb/s, 60 fps, 1k tbn (default)\n    Metadata:\n      encoder         : Lavc62.11.100 libsvtav1\n      handler_name    : VideoHandler\n      vendor_id       : [0][0][0][0]\n    Side data:\n      cpb: bitrate max/min/avg: 0/0/1000000 buffer size: 1000000 vbv_delay: N/A\nframe=    0 fps=0.0 q=0.0 size=       0KiB time=N/A bitrate=N/A speed=N/A elapsed=0:00:01.03    \nframe=    0 fps=0.0 q=0.0 size=       0KiB time=N/A bitrate=N/A speed=N/A elapsed=0:00:01.58    \nframe=    0 fps=0.0 q=0.0 size=       0KiB time=N/A bitrate=N/A speed=N/A elapsed=0:00:02.11    \nframe=    0 fps=0.0 q=0.0 size=       0KiB time=N/A bitrate=N/A speed=N/A elapsed=0:00:02.72    \nframe=    0 fps=0.0 q=0.0 size=       0KiB time=N/A bitrate=N/A speed=N/A elapsed=0:00:03.30    \nframe=    3 fps=0.8 q=60.0 size=       1KiB time=00:00:00.03 bitrate= 170.9kbits/s speed=0.00874x elapsed=0:00:03.81    \nframe=   13 fps=3.0 q=59.0 size=       1KiB time=00:00:00.18 bitrate=  31.1kbits/s speed=0.0421x elapsed=0:00:04.35    \nframe=   23 fps=4.7 q=59.0 size=       1KiB time=00:00:00.36 bitrate=  15.5kbits/s speed=0.0749x elapsed=0:00:04.89    \nframe=   34 fps=6.3 q=61.0 size=       1KiB time=00:00:00.55 bitrate=  10.4kbits/s speed=0.102x elapsed=0:00:05.41    \nframe=   46 fps=7.7 q=61.0 size=       1KiB time=00:00:00.75 bitrate=   7.6kbits/s speed=0.126x elapsed=0:00:05.94    \nframe=   58 fps=8.9 q=61.0 size=       1KiB time=00:00:00.95 bitrate=   6.0kbits/s speed=0.146x elapsed=0:00:06.49    \nframe=   70 fps=9.9 q=57.0 size=       1KiB time=00:00:01.13 bitrate=   5.0kbits/s speed=0.161x elapsed=0:00:07.03    \nframe=   78 fps= 10 q=55.0 size=       1KiB time=00:00:01.28 bitrate=   4.4kbits/s speed=0.17x elapsed=0:00:07.57    \nframe=   87 fps= 11 q=51.0 size=       1KiB time=00:00:01.43 bitrate=   4.0kbits/s speed=0.177x elapsed=0:00:08.09    \nframe=   95 fps= 11 q=50.0 size=       1KiB time=00:00:01.56 bitrate=   3.6kbits/s speed=0.181x elapsed=0:00:08.65    \nframe=  102 fps= 11 q=46.0 size=       1KiB time=00:00:01.68 bitrate=   3.4kbits/s speed=0.183x elapsed=0:00:09.19    \nframe=  110 fps= 11 q=46.0 size=       1KiB time=00:00:01.80 bitrate=   3.2kbits/s speed=0.185x elapsed=0:00:09.71    \nframe=  115 fps= 11 q=41.0 size=       1KiB time=00:00:01.88 bitrate=   3.0kbits/s speed=0.184x elapsed=0:00:10.23    \nframe=  121 fps= 11 q=41.0 size=       1KiB time=00:00:01.98 bitrate=   2.9kbits/s speed=0.184x elapsed=0:00:10.76    \nframe=  127 fps= 11 q=41.0 size=       1KiB time=00:00:02.10 bitrate=   2.7kbits/s speed=0.185x elapsed=0:00:11.33    \nframe=  136 fps= 11 q=44.0 size=       1KiB time=00:00:02.25 bitrate=   2.5kbits/s speed=0.189x elapsed=0:00:11.87    \nframe=  143 fps= 12 q=41.0 size=       1KiB time=00:00:02.36 bitrate=   2.4kbits/s speed=0.191x elapsed=0:00:12.40    \nframe=  152 fps= 12 q=43.0 size=       1KiB time=00:00:02.51 bitrate=   2.3kbits/s speed=0.194x elapsed=0:00:12.97    \nframe=  162 fps= 12 q=42.0 size=       1KiB time=00:00:02.66 bitrate=   2.1kbits/s speed=0.197x elapsed=0:00:13.53    \nframe=  168 fps= 12 q=42.0 size=       1KiB time=00:00:02.78 bitrate=   2.0kbits/s speed=0.197x elapsed=0:00:14.11    \nframe=  175 fps= 12 q=40.0 size=       1KiB time=00:00:02.90 bitrate=   2.0kbits/s speed=0.198x elapsed=0:00:14.66    \nframe=  184 fps= 12 q=39.0 size=       1KiB time=00:00:03.03 bitrate=   1.9kbits/s speed= 0.2x elapsed=0:00:15.19    \nframe=  193 fps= 12 q=37.0 size=       1KiB time=00:00:03.18 bitrate=   1.8kbits/s speed=0.202x elapsed=0:00:15.75    \nframe=  200 fps= 12 q=42.0 size=       1KiB time=00:00:03.31 bitrate=   1.7kbits/s speed=0.204x elapsed=0:00:16.29    \nframe=  209 fps= 12 q=36.0 size=       1KiB time=00:00:03.46 bitrate=   1.6kbits/s speed=0.206x elapsed=0:00:16.82    \nframe=  219 fps= 13 q=42.0 size=       1KiB time=00:00:03.63 bitrate=   1.6kbits/s speed=0.209x elapsed=0:00:17.35    \nframe=  229 fps= 13 q=40.0 size=       1KiB time=00:00:03.80 bitrate=   1.5kbits/s speed=0.213x elapsed=0:00:17.86    \nframe=  237 fps= 13 q=41.0 size=       1KiB time=00:00:03.93 bitrate=   1.4kbits/s speed=0.214x elapsed=0:00:18.39    \nframe=  249 fps= 13 q=38.0 size=       1KiB time=00:00:04.13 bitrate=   1.4kbits/s speed=0.219x elapsed=0:00:18.91    \nframe=  259 fps= 13 q=41.0 size=       1KiB time=00:00:04.26 bitrate=   1.3kbits/s speed=0.22x elapsed=0:00:19.42    \nframe=  269 fps= 13 q=41.0 size=       1KiB time=00:00:04.46 bitrate=   1.3kbits/s speed=0.224x elapsed=0:00:19.96    \nframe=  281 fps= 14 q=41.0 size=       1KiB time=00:00:04.66 bitrate=   1.2kbits/s speed=0.228x elapsed=0:00:20.48    \n[out#0/matroska @ 0000024ebaba9000] video:475KiB audio:0KiB subtitle:0KiB other streams:0KiB global headers:0KiB muxing overhead: 0.431056%\nframe=  300 fps= 14 q=48.0 Lsize=     477KiB time=00:00:04.98 bitrate= 784.0kbits/s speed=0.238x elapsed=0:00:20.90    \n",
  "seconds": 21.426268815994263,
  "probe_out": {}
}